<?xml version="1.0" standalone="no"?>
<!DOCTYPE svg PUBLIC "-//W3C//DTD SVG 20010904//EN"
 "http://www.w3.org/TR/2001/REC-SVG-20010904/DTD/svg10.dtd">
<svg version="1.0" xmlns="http://www.w3.org/2000/svg"
 width="110.000000pt" height="110.000000pt" viewBox="0 0 110.000000 110.000000"
 preserveAspectRatio="xMidYMid meet">
<metadata>
Created by potrace 1.11, written by Peter Selinger 2001-2013
</metadata>
<g transform="translate(0.000000,110.000000) scale(0.100000,-0.100000)"
fill="#000000" stroke="none">
<path d="M439 891 c-78 -25 -155 -69 -190 -108 -60 -70 -28 -162 82 -235 70
-46 139 -63 202 -48 68 15 114 48 133 95 21 52 31 223 15 254 -33 60 -132 77
-242 42z"/>
<path d="M724 653 c-40 -59 -53 -127 -34 -164 14 -25 102 -69 139 -69 40 0
101 57 101 94 0 48 -22 115 -46 141 -20 21 -32 25 -82 25 -54 0 -61 -3 -78
-27z"/>
<path d="M254 482 c-47 -40 -57 -65 -44 -111 32 -121 136 -170 205 -97 36 38
58 107 45 140 -10 27 -35 49 -87 75 -56 28 -82 27 -119 -7z"/>
<path d="M555 445 c-14 -13 -25 -31 -25 -40 0 -9 -12 -36 -26 -60 -24 -42 -25
-45 -9 -77 24 -51 59 -71 124 -72 63 -1 98 18 126 70 20 38 17 123 -5 135 -29
16 -147 69 -154 69 -4 0 -18 -11 -31 -25z"/>
</g>
</svg>
